/* XPM */
static char *_638900463974[] = {
/* columns rows colors chars-per-pixel */
"32 32 9 1 ",
"  c #221714",
". c #71111A",
"X c #941E29",
"o c #925D48",
"O c #C65457",
"+ c #EC823C",
"@ c #F8DE7E",
"# c #F5F5DC",
"$ c #485D63",
/* pixels */
"$$$$$$$$$$$$$$$$$$$$$$$$$$$$$$$$",
"$$$$$$$$$$$$$$$$$$$$$$$$$$$$$$$$",
"$$$$$$$$$$$$$$$$$$$$$$$$$$$$$$$$",
"$$$$$$$$$$$$$$$$$$$$$$$$$$$$$$$$",
"$$$$$$$$$$$$$$$$$$$$$$$$$$$$$$$$",
"$$$$$$$$$$$$$ $$$$$ $$$$$$$$$$$$",
"$$$$$$$$$$$$ @ $$$ @ $$$$$$$$$$$",
"$$$$$$$$$$$$ +.   .+ $$$$$$$$$$$",
"$$$$$$$$$$$$ +@.@.o+ $$$$$$$$$$$",
"$$$$$$$$$$$$.  o@@  .$$$$$$$$$$$",
"$$$$$$$$$$$$. O @ O .$$$$$$$$$$$",
"$$$$$$$$$.... .+@o. ....$$$$$$$$",
"$$$$$$$$.+++.  # #  .+++.$$$$$$$",
"$$$$$$$.+o.. oX X XX ..o+.$$$$$$",
"$$$$$$.+.XX. ooXXXXo .XX.+.$$$$$",
"$$$$$$.o.X.. @ooXoo@ ..X.o.$$$$$",
"$$$$$.+oX.. $ @@@@@ $ ..Xo+.$$$$",
"$$$$..+... $$ @@ @@ $$ ...+..$$$",
"$$$.++oX. $$$ X $ X $$$ ..o++.$$",
"$$$$.+oX $$$$ X $ X $$$$ .o+.$$$",
"$$$$.o.o $$$$$ $$$ $$$$$ o.o.$$$",
"$$$$.o.. $$$$$$$$$$$$$$$ ..o.$$$",
"$$$..o. $$$$$$$$$$$$$$$$$ Xo..$$",
"$$$ Xo. $$$$$$$$$$$$$$$$$ XoX $$",
"$$$ XX. $$$$$$$$$$$$$$$$$ ..X $$",
"$$$$ . $$$$$$$$$$$$$$$$$$$ X $$$",
"$$$$$  $$$$$$$$$$$$$$$$$$$  $$$$",
"$$$$$$$$$$$$$$$$$$$$$$$$$$$$$$$$",
"$$$$$$$$$$$$$$$$$$$$$$$$$$$$$$$$",
"$$$$$$$$$$$$$$$$$$$$$$$$$$$$$$$$",
"$$$$$$$$$$$$$$$$$$$$$$$$$$$$$$$$",
"$$$$$$$$$$$$$$$$$$$$$$$$$$$$$$$$"
};
