/* XPM */
static char *c78bb795a95746bbfc41edc88c9e37ceCtqRUCjJaGN0VyRA[] = {
/* columns rows colors chars-per-pixel */
"32 32 3 1 ",
"  c #485D63",
". c #49737F",
"X c #7F9BA3",
/* pixels */
"                                ",
" XXXX.. X.. XXX.. XXX.. XX.. X. ",
" ......     ..X.  ..X.  ...  .. ",
"  ....        .     X.          ",
"                                ",
"                                ",
"                                ",
"                                ",
"                                ",
"                                ",
"                                ",
"                                ",
"                                ",
"                                ",
"                                ",
"                                ",
"                                ",
"                                ",
"                                ",
"                                ",
"                                ",
"                                ",
"                                ",
"                                ",
"                                ",
"                                ",
"                                ",
"                                ",
"                                ",
"                                ",
"                                ",
"                                "
};
