/* XPM */
static char *bf715e9c8ace4b54ee42e5978055d7d4GdvCpS6Ne1zay9rW[] = {
/* columns rows colors chars-per-pixel */
"32 32 4 1 ",
"  c None",
". c #485D63",
"X c #49737F",
"o c #7F9BA3",
/* pixels */
"     ...........................",
"   ..XooXX.XoXX.XoooX.oo.Xoo.ooX",
"  .XX.XXXX.X.X...XXo...X..XX.XXX",
" .oXX..XX.................X.....",
" .XX............................",
".XXX............................",
"..X.............................",
".X..............................",
".XXX............................",
".oXX............................",
".oXX............................",
".oXX............................",
".XX.............................",
"................................",
".XX.............................",
".ooX............................",
".oXX............................",
".oX.............................",
".oX.............................",
".XX.............................",
".X..............................",
"...X............................",
".oXX............................",
".oXX............................",
".oXX............................",
".oXX............................",
"................................",
".oX.............................",
".oX.............................",
".oXX............................",
".oXX............................",
"................................"
};
