/* XPM */
static char *_341303a4f5d48a99ad09352935bdd8fxBBMFcCLkz4GAq1O[] = {
/* columns rows colors chars-per-pixel */
"32 32 4 1 ",
"  c None",
". c #485D63",
"X c #49737F",
"o c #7F9BA3",
/* pixels */
"................................",
"...........................XXXo.",
"...........................XXXo.",
"............................XXo.",
"................................",
".............................Xo.",
"...........................XXXo.",
"...........................XXoo.",
"...........................XXoo.",
"...........................XXXo.",
"...XXX.....................XXXX.",
".XXXXXX...oXXX..................",
".XXooXX..ooooXX...oXXX...XXXXX..",
".oooooX..........ooXXX..oXXXXXX.",
".........oXXXXX...ooX...........",
".oooXXX..oXXXX.. ......oooooXXX.",
".ooXXXX..XXXXX.  .oXX...ooXXXXX.",
".oXXXXX...XXXX.  .oXX. .ooXXXXX.",
".oXXXXX. .oXX..  .oX.. .ooXXXXX.",
".oXXXXX. .oXX.   .oX.  .oXXXXXX.",
".oXXXXX. ..XX.   .oX.  .oXXXXXX.",
".oXXXXX.  .XX.   .oX.  .oXXXXXX.",
".oXXXXX.  .oX.   .XX.  ..oXXXXX.",
" .oXXXX.  .oX.   .XX.   .oXXXX..",
" .oXXXX.  ....   .XX.   .oXXXX. ",
" .oXXX..   ..    ....   .oXXXX. ",
"  .XXX.           ..    .oXXXX. ",
"  ..X..           .     ..oXXX. ",
"   ...                   .oXX.. ",
"                         ..XX.  ",
"                          .XX.  ",
"                          ...   "
};
