/* XPM */
static char *b91eba49b89a48aaf6e52d82e1ae27a4mEtYROgnlw5SN6PM[] = {
/* columns rows colors chars-per-pixel */
"32 32 4 1 ",
"  c None",
". c #485D63",
"X c #49737F",
"o c #7F9BA3",
/* pixels */
"................................",
"................................",
"................................",
".......................oXX......",
"................................",
"................................",
"...XX...........................",
"..Xoo...........................",
"................................",
"................................",
"................................",
"..................X.............",
"...XXXX...oXXXX..oX...oX........",
"..oXXXXX.ooooXXX.....ooXX..XXX..",
".oooooXX.........oX.ooXXX.ooXX..",
"..........ooXXX..o...oXXX.......",
".oooXXX. .oXXXX.... .......oXXX.",
".ooXXXX. .oXXXX. .. .oXXX..oXXX.",
".oXXXXX. .oXXXX. .. .oXXX..oXXX.",
".oXXXX.. .XXXXX.    .oXX...oXXX.",
".oXXXX.  .XXXXX.    .oXX. .oXXX.",
".oXXXX.  ..XXXX.    .oXX. .oXXX.",
".oXXXX.   .oXXX.    ..o.. .oXXX.",
".oXXXX.   .oXXX.     .o.  .XXXX.",
" .oXXX.   .XXXX.     .o.  .XXXX.",
" .oXX..   ..oXX.     .X.  ..oXX.",
" ...X.     ..X..     .X.   .oXX.",
"   ...      ...      .X.   .... ",
"             .       .X.        ",
"                     .X.        ",
"                     ...        ",
"                      .         "
};
