/* XPM */
static char *df2a354d70d94df48a6447da851f9457a1Cgz5xTvIRodzWs[] = {
/* columns rows colors chars-per-pixel */
"32 32 4 1 ",
"  c None",
". c #485D63",
"X c #49737F",
"o c #7F9BA3",
/* pixels */
"................................",
".............XXX................",
"............XXoo................",
"................................",
"................................",
"................................",
"...XXX...................XXXXX..",
"..XXoo...................XoooXX.",
"........................Xoooooo.",
"................................",
"................................",
".........X......................",
".......XXX...................XX.",
".......oXX...oX.....XXX.....oXX.",
"..XX..oooo.oXXXX..oXXXXXXX.oooX.",
"oXXX.......oXXXX...XXXXXXX......",
"oooXX..oX. .oXXX. ...XX....oXXX.",
".......oX. ...... .o....XX.oXXX.",
"oXXXX..X..  .oXX. .oXXXXXX.oXXX.",
"oXXXX. ..   .oXX. .oXXXXXX.oXXX.",
"oXXXX.      .oXX. .oXXXXXX.oXXX.",
"oXXXX.      .oXX. ..oXXXXX.oXXX.",
".oXXX.      .oXX.  .oXXXX..ooXX.",
" .oXX.      ...X.  ..oXX.. .oX..",
" .oXX.        .X.    .oX.  .oX. ",
" ..XX.        ...    ....  .o.. ",
"  ..o.        ..           ...  ",
"   ...                          ",
"   ..                           ",
"   ..                           ",
"                                ",
"                                "
};
