/* XPM */
static char *f0edbeb4e6fc4cf5dc0dd6d86d2963c06e5HQSdEtoJFzD6q[] = {
/* columns rows colors chars-per-pixel */
"32 32 4 1 ",
"  c None",
". c #485D63",
"X c #49737F",
"o c #7F9BA3",
/* pixels */
"...........................     ",
"ooXXX.oooXXX.ooooXX.oX..ooX..   ",
"XXXX..XXXXX..XXXXXX......XXXX.  ",
"................XX.........XX.. ",
"............................... ",
"..............................o.",
".............................oX.",
".............................oX.",
"..............................X.",
"..............................X.",
"................................",
".............................oo.",
".............................Xo.",
".............................Xo.",
".............................Xo.",
".............................Xo.",
".............................XX.",
"..............................X.",
"................................",
"..............................X.",
".............................Xo.",
".............................oo.",
".............................Xo.",
".............................Xo.",
".............................XX.",
"..............................X.",
"..............................X.",
"..............................X.",
"................................",
"..............................o.",
".............................XX.",
"..............................X."
};
