/* XPM */
static char *_b5cb14ec2244573dd2c9494db9eff51pqWDblBYNyK2dCXk[] = {
/* columns rows colors chars-per-pixel */
"32 32 3 1 ",
"  c #485D63",
". c #49737F",
"X c #7F9BA3",
/* pixels */
"                                ",
"                            .XX ",
"                            ..X ",
"                            ..X ",
"                            ..X ",
"                            ... ",
"                             .. ",
"                              . ",
"                                ",
"                                ",
"                              . ",
"                             .. ",
"                             .X ",
"                             .. ",
"                             .. ",
"                           ...X ",
"                           ..XX ",
"                           ..XX ",
"                            ..X ",
"                             .X ",
"                             .. ",
"                              . ",
"                                ",
"                              . ",
"                             .X ",
"                             .X ",
"                             .X ",
"                             .. ",
"                                ",
"                              X ",
"                              . ",
"                              . "
};
