/* XPM */
static char *_1c64f49ba4742ad9c9040b76d7b1c12zq4n8DN2h9yvPUFR[] = {
/* columns rows colors chars-per-pixel */
"32 32 3 1 ",
"  c #485D63",
". c #49737F",
"X c #7F9BA3",
/* pixels */
" X.                             ",
" X.                             ",
" .                              ",
" .                              ",
"                                ",
" X.                             ",
" X.                             ",
" X.                             ",
" ..                             ",
" .                              ",
"                                ",
" X                              ",
" X.                             ",
" X.                             ",
" X.                             ",
" X.                             ",
" ..                             ",
" .                              ",
"                                ",
" .                              ",
" .                              ",
" .                              ",
" X.                             ",
" X.                             ",
"                                ",
" .                              ",
" .                              ",
" .                              ",
" X.                             ",
" XX.                            ",
" X                              ",
"                                "
};
