/* XPM */
static char *_638899921104[] = {
/* columns rows colors chars-per-pixel */
"32 32 4 1 ",
"  c #485D63",
". c #49737F",
"X c #7F9BA3",
"o c None",
/* pixels */
" X                              ",
" X                              ",
" X.                             ",
" X.                             ",
" X.                             ",
" ..                             ",
" ..                             ",
"                                ",
" ..                             ",
" X..                         .  ",
" X..      X.         ..    .... ",
" ...  ..  X..  ...  X...  X.... ",
"     X..       X...       X.... ",
" X.       ...  X...  X... X.    ",
" X.  X..  X..        X...    .. ",
" X.  X..  X..  ....  X..   X... ",
" X.  X..   ..  X...  X.. o X... ",
" X.. X.. o ..  X...  X.. o X... ",
" X.. ... o X.  X...  X.. o X... ",
" X..  .    X.  X...  X.. o X... ",
" X..  .   .X.  X...  X.  o X... ",
" X..  X.  .X.  X...  .. oo X..  ",
" ..   X.  ...  X...  .. oo X.. o",
" .. o  .  ...  X...  .  oo X.. o",
" .. oo .   ..  ....    ooo X.. o",
" .. oo   o     .... oooooo  .. o",
"  . oo  ooo  o X... ooooooo .. o",
"o   oooooooooo X... ooooooo    o",
"oooooooooooooo X... oooooooooooo",
"oooooooooooooo .... oooooooooooo",
"oooooooooooooo  ... oooooooooooo",
"ooooooooooooooo     oooooooooooo"
};
