/* XPM */
static char *_638900703565[] = {
/* columns rows colors chars-per-pixel */
"32 32 6 1 ",
"  c #28363A",
". c #485D63",
"X c #49737F",
"o c #A82931",
"O c #E06F28",
"+ c #D6AC40",
/* pixels */
"................................",
"................................",
"...............oo...............",
"..............ooo...............",
".............ooooo..............",
"............ooooooo.............",
"............oooOooo.............",
"............ooOOOooo............",
"...........oooOOOOooo...........",
"...........ooOOO+Oooo...........",
"...........ooO++++Oooo..........",
"..........ooOO++++OOoo..........",
"..........oOO++++++OOo..........",
"....... ..oOO+++++++Oo.... .....",
".......  .oOO+++++++Ooo..  .....",
"........    O+++++++OO    ......",
"..........X   ++++++    ........",
"...........X           .........",
".............X       ...........",
"..............X     ............",
"...............    .............",
"................X ..............",
"................X ..............",
"................X ..............",
"................X ..............",
"................X ..............",
"................X ..............",
"................  ..............",
"..............      ............",
"...........XXX         .........",
".............XX      ...........",
"..............XX    ............"
};
