/* XPM */
static char *_638900661751[] = {
/* columns rows colors chars-per-pixel */
"32 32 6 1 ",
"  c #28363A",
". c #485D63",
"X c #49737F",
"o c #A82931",
"O c #E06F28",
"+ c #D6AC40",
/* pixels */
"................................",
"................................",
"..................oo............",
".................ooo............",
"................oooo............",
"..............oooooo............",
".............oooooo.............",
".............ooOOooo............",
"............ooOOOoooo...........",
"...........ooOO+OOooo...........",
"...........ooOO++OOooo..........",
"..........ooOO++++OOoo..........",
"..........oOO++++++OOo..........",
"....... ..oOO+++++++Oo.... .....",
".......  .oO++++++++Ooo..  .....",
"........    ++++++++++    ......",
"..........X   ++++++    ........",
"...........X           .........",
".............X       ...........",
"..............X     ............",
"...............    .............",
"................X ..............",
"................X ..............",
"................X ..............",
"................X ..............",
"................X ..............",
"................X ..............",
"................  ..............",
"..............      ............",
"...........XXX         .........",
".............XX      ...........",
"..............XX    ............"
};
