/* XPM */
static char *_638900628308[] = {
/* columns rows colors chars-per-pixel */
"32 32 6 1 ",
"  c #28363A",
". c #485D63",
"X c #49737F",
"o c #A82931",
"O c #E06F28",
"+ c #D6AC40",
/* pixels */
"................................",
"................................",
"................................",
"..............o.................",
"..............oo................",
"..............oo................",
"..............ooo...............",
"..............ooo...............",
".............oooooo.............",
".............ooOooo.............",
"............oooOOOoo............",
"............ooOO+OOoo...........",
"...........ooOO+++Oooo..........",
"....... ..ooOO++++OOoo.... .....",
".......  .oOO++++++OOo...  .....",
"........    +++++++OOo    ......",
"..........X   +++++O    ........",
"...........X           .........",
".............X       ...........",
"..............X     ............",
"...............    .............",
"................X ..............",
"................X ..............",
"................X ..............",
"................X ..............",
"................X ..............",
"................X ..............",
"................  ..............",
"..............      ............",
"...........XXX         .........",
".............XX      ...........",
"..............XX    ............"
};
