/* XPM */
static char *_638900759512[] = {
/* columns rows colors chars-per-pixel */
"32 32 8 1 ",
"  c #28363A",
". c #3F3530",
"X c #5E3C2A",
"o c #7A5643",
"O c #485D63",
"+ c #C6AC2A",
"@ c #C7C922",
"# c #EDEBDE",
/* pixels */
"OOOOOOOOOOOOOOOOOOOOOOOOOOOOOOOO",
"OOOOOOOOOOOOOOOOOOOOOOOOOOOOOOOO",
"OOOOOOOOOOOOOOOOOOOOOOOOOOOOOOOO",
"OOOOOOOOOOOOOOOOOOOOOOOOOOOOOOOO",
"OOOOOOOOOOOOOOOOOOOOOOOOOOOOOOOO",
"OOOOOOOOOOOOOOOOOOOOOOOOOOOOOOOO",
"OOOOOOOOOOOOOOOOOOOOOOOOOOOOOOOO",
"OOOOOOOOOOOOOOOOOOOOOOOOOOOOOOOO",
"OOOOOOO OOOOOOOOOOOOOOOO OOOOOOO",
"OOOXXXX XXXXX     XXXXXX XXXXOOO",
"OOXXX.........   ...........XXOO",
"OXXX..XX.............@@@XX..XXXO",
"OXX....@@@XX........@@+@.....XXO",
"XX....@@+@..@@@.@@..@#+@@....XXX",
"X..@@.@++@.@++@@+@@@@++@@@....XX",
"X.@@@@++@@@@+@@+++@+@@@@#@@@@@.X",
"X@@#+@@@@++@@@+++#@@@@@+++@++@@X",
"X@@++@+@+++@+@@++@@+@+@+++@++@@X",
"                                ",
"                                ",
"XXXXXXX XXXXX     XXXXXX XXXXXXX",
"XXXXooo XXXXX     ooooXX XXXoooX",
"XXXoooo XXoooooooooooooo XXooooX",
"XXooooo XXoooooooooooooo XXooXXX",
"XXooooo XooXXXXXXXXXoooo XoooooX",
"Xoooooo Xooooooooooooooo XoooooX",
"XooXXXX Xooooooooooooooo XoooooX",
"Xoooooo XooooooooooXXXoo XXXXXoX",
"XXXoooo Xooooooooooooooo XoooXXX",
"Xoooooo XXXooooooooooooo XoooooX",
"OXooooo XXXXXXXXXXXXXXXX XooooXO",
"OOXXXXX XXXXXXXXXXXXXXXX XXXXXOO"
};
