/* XPM */
static char *_638900729338[] = {
/* columns rows colors chars-per-pixel */
"32 32 4 1 ",
"  c #28363A",
". c #5E3C2A",
"X c #7A5643",
"o c #485D63",
/* pixels */
"oooooooooooooooooooooooooooooooo",
"oooooooooooooooooooooooooooooooo",
"oooooooooooooooooooooooooooooooo",
"oooooooooooooooooooooooooooooooo",
"oooooooooooooooooooooooooooooooo",
"oooooooooooooooooooooooooooooooo",
"ooooooo oooooooooooooooo ooooooo",
"oo..... ................ .....oo",
"o...... ................ ......o",
"o..XXXX .XXXXXXXXXXXXXXX .XXXXX.",
".XXXX.. .XXXXXXXXXXXXXXX XXXXXX.",
".XXXXXX XX.........XXXXX X...XX.",
".XXXXXX XXXXXXXXXXXXXXXX XXXXXX.",
"....... ................ .......",
".XXXXXX .XXXXXXXX..XXXXX .XXXXX.",
".X..... XXXXXXXXXXXX...X XXX..X.",
".XXXXXX XXXXXXXXXXXXXXXX XXXXXX.",
"........................ .......",
"                                ",
"                                ",
"....... .....     ...... .......",
"....XXX .....     XXXX.. ...XXX.",
"...XXXX ..XXXXXXXXXXXXXX ..XXXX.",
"..XXXXX ..XXXXXXXXXXXXXX ..XX...",
"..XXXXX .XX.........XXXX .XXXXX.",
".XXXXXX .XXXXXXXXXXXXXXX .XXXXX.",
".XX.... .XXXXXXXXXXXXXXX .XXXXX.",
".XXXXXX .XXXXXXXXXX...XX .....X.",
"...XXXX .XXXXXXXXXXXXXXX .XXX...",
".XXXXXX ...XXXXXXXXXXXXX .XXXXX.",
"o.XXXXX ................ .XXXX.o",
"oo..... ................ .....oo"
};
