/* XPM */
static char *_638900826314[] = {
/* columns rows colors chars-per-pixel */
"32 32 5 1 ",
"  c #28363A",
". c #394C51",
"X c #485D63",
"o c #49737F",
"O c #7F9BA3",
/* pixels */
"XXXXXXXXXXXXXXXX  XXXXXXXXXXXXXX",
"XXXXXXXXXXXX    Oo     XXXXXXXXX",
"XXXXXXXXX   Ooo  o OOO  XXXXXXXX",
"XXXXXXXXX O O   O  Oooo XXXXXXXX",
"XXXXXXXX  oo   oO   ooo XXXXXXXX",
"XXXXXX    o    oO    oo XXXXXXXX",
"XXXXX  Oo o    oO    o O XXXXXXX",
"XXXXX Oooo     oO   o oO  XXXXXX",
"XXXXX Ooo  O   oO   o  oO  XXXXX",
"XXX     o oO   oO   oO ooO XXXXX",
"XXX OOoo  oO   oO   oO  oO XXXXX",
"XX  Oooo  oO   oO   oO  oo  XXXX",
"XXX Oooo  oO   oO   oO  ooO  XXX",
"XXX  oo   oO   oO   oO   ooO XXX",
"        oooooooooooooooo        ",
" Oooooo OOoOOOOoOOOOoOOO oooOOO ",
" Oooooo   oO   oO   oO   ooooOO ",
" OOoooo   oO   oO   oO   oooooO ",
" OOoooo   oO   oO   oO   oooooO ",
" OOoooo   oO   oO   oO   oooooO ",
" OOoooo oooooooooooooooo oooooO ",
" OOooo OOOoOOOOoOOOOoOOOO ooooO ",
" Ooooo    oO...oO...oO    ooooO ",
" Ooooo ...oO...oO...oO... ooooO ",
" Ooooo ...oO...oO...oO... ooooO ",
" Ooooo ..XoOXXXoOXXXoOX.. ooooO ",
" ooooo oooooooooooooooooo ooooO ",
" oo oo OOOoOOOOoOOOOoOOOO oo OO ",
"X  o  XXXXoOXXXoOXXXoOXXXX  o  X",
" Ooooo XXXoOXXXoOXXXoOXXX ooooO ",
" Ooooo XXXoOXXXoOXXXoOXXX ooooO ",
"      XXXXoOXXXoOXXXoOXXXX      "
};
