/* XPM */
static char *_638900836259[] = {
/* columns rows colors chars-per-pixel */
"32 32 5 1 ",
"  c #28363A",
". c #394C51",
"X c #485D63",
"o c #49737F",
"O c #7F9BA3",
/* pixels */
"XXXXXXXXXXXXXXXX  XXXXXXXXXXXXXX",
"XXXXXXXXXXXX    Oo     XXXXXXXXX",
"XXXXXXXXX   Ooo  o OOO  XXXXXXXX",
"XXXXXXXXX O O      Oooo XXXXXXXX",
"XXXXXXXX  oo        ooo XXXXXXXX",
"XXXXXX    o          oo XXXXXXXX",
"XXXXX  Oo o          o O XXXXXXX",
"XXXXX Oooo            oO  XXXXXX",
"XXXXX Ooo              oO  XXXXX",
"XXX     o              ooO XXXXX",
"XXX OOoo                oO XXXXX",
"XX  Oooo                oo  XXXX",
"XXX Oooo                ooO  XXX",
"XXX  oo                  ooO XXX",
"                                ",
" Oooooo                  oooOOO ",
" Oooooo                  ooooOO ",
" OOoooo                  oooooO ",
" OOoooo                  oooooO ",
" OOoooo                  oooooO ",
" OOoooo                  oooooO ",
" OOooo       .......      ooooO ",
" Ooooo    ............    ooooO ",
" Ooooo .................. ooooO ",
" Ooooo .................. ooooO ",
" Ooooo ..XXXXXXXXXXXXXX.. ooooO ",
" ooooo .XXXXXXXXXXXXXXXXX ooooO ",
" oo oo XXXXXXXXXXXXXXXXXX oo OO ",
"X  o  XXXXXXXXXXXXXXXXXXXX  o  X",
" Ooooo XXXXXXXXXXXXXXXXXX ooooO ",
" Ooooo XXXXXXXXXXXXXXXXXX ooooO ",
"      XXXXXXXXXXXXXXXXXXXX      "
};
