/* XPM */
static char *_639512091726[] = {
/* columns rows colors chars-per-pixel */
"32 32 9 1 ",
"  c #1D181E",
". c #432F53",
"X c #5C436F",
"o c #5F5F7B",
"O c #AE0000",
"+ c #B572B1",
"@ c #7784A2",
"# c #FFF9D6",
"$ c #485D63",
/* pixels */
"$$$$$$$$$$$$$$$$$$$$$$$$$$$$$$$$",
"$$$$$$$$$$$$$$$$$$$$$$$$$$$$$$$$",
"$$$$$$$$$$$$$$$$$$$$$$$$$$$$$$$$",
"$$$$$$$$$$$$$$$$$$$$$$$$$$$$$$$$",
"$$$$$$$$$$$$$$$$$$$$$$$$$$$$$$$$",
"$$$$$$$$$$$$$$$$$$$$$$$$$$$$$$$$",
"$$$$$$$$$$$$$$$$$$$$$$$$$$$$$$$$",
"$$$$$$$$$$$$$$$$$$$$$$$$$$$$$$$$",
"$$$$$$$$$$$$$$$$$$$$$$$$$$$$$$$$",
"$$$$$$$$$$$$$$$$$$$$$$$$$$$$$$$$",
"$$$$$$$$$$$$$$$$$$$$$$$$$$$$$$$$",
"$$$$$$$$$$$$$$$$$$$$$$$$$$$$$$$$",
"$$$$$$$$$$$$$$$$$$$$$$$$$$$$$$$$",
"$$$$$$$$$$$$$$$$$$$$$$$$$$$$$$$$",
"$$$$$$$$$$$$$$$$$$$$$$$$$$$$$$$$",
"$$$$$$$$$$$$$$$$$$$$$$$$$$$$$$$$",
"$$$$$$$$$$$$$$$$$$$$$$$$$$$$$$$$",
"$$$$$$$$$$$$$$$$$$$$$$$$$$$$$$$$",
"$$$$$$$$$$$$$$$$$$$$$$$$$$$$$$$$",
"$$$$$$$$$$$$$$$$$$$$$$$$$$$$$$$$",
"$$$$$$$$$$$$$...$$$   $$$$$$$$$$",
"$$$$$$$$..$$.@@o.$ o++ $$$$$$$$$",
"$$$$$$$ ++. @@o o o+XX $$$$$$$$$",
"$$$$$$ .X.+.oo +  +X.Xo $$$$$$$$",
"$$$$$$ XX. +. oo   ..Xoo $$$$$$$",
"$$$$$$ X.. o @@ o   .oXX.$$$$$$$",
"$$$$$$ X..  .@oO@ $$ .Xo+  $$$$$",
"$$$$   .. ++o @@o $$ ..+.XX $$$$",
"$$$ ooo..    O+@o $$$ o+++o $$$$",
"$$$$     $$$ o@# $$$$$     $$$$$",
"$$$$$$$$$$$$$   $$$$$$$$$$$$$$$$",
"$$$$$$$$$$$$$$$$$$$$$$$$$$$$$$$$"
};
