/* XPM */
static char *_638900491858[] = {
/* columns rows colors chars-per-pixel */
"32 32 9 1 ",
"  c #1D181E",
". c #432F53",
"X c #5C436F",
"o c #5F5F7B",
"O c #AE0000",
"+ c #B572B1",
"@ c #7784A2",
"# c #FFF9D6",
"$ c None",
/* pixels */
"$$$$$$$$$$$$$$$$$$$$$$$$$$$$$$$$",
"$$...$$$$$$$$$$$$$$$$$$$$$$$   $",
"$.o++....$$$$$$$$$$$$$$$....++o ",
"$$...o+++.$$$$$$$$$$$$$.+++o.. $",
"$$$ XXX.oo $$$$$$$$$$$.+o..XX $$",
"$$$$ ..+.o $$$$$$$$$$$.+.o.. $$$",
"$$$$$ o..o. $$$$$$$$$ .o.Xo $$$$",
"$$$$ o..o.. $$$$$$$$$ ..oX.o $$$",
"$$$$$  .o.X $ $$$$$ $ .Xo.  $$$$",
"$$$$$$ oXX.. @ $$$ @ .XX.o $$$$$",
"$$$$$$ oXX.. +.   .+ ..XXo $$$$$",
"$$$$$ o.X.oo +@.@.o+ oo...o $$$$",
"$$$$$$  .o...  o@@  .X.o.  $$$$$",
"$$$$$$$ o..X. O @ O .XX.o $$$$$$",
"$$$$$$$ ..X.. .+@o. .XX.. $$$$$$",
"$$$$$$$$ ....  # #  ..X. $$$$$$$",
"$$$$$$$$$ .. oX X XX .. $$$$$$$$",
"$$$$$$$$$$   oXoXXXo   $$$$$$$$$",
"$$$$$$$$$$$$ @@ooXo@ $$$$$$$$$$$",
"$$$$$$$$$$$$$ @@@@@ $$$$$$$$$$$$",
"$$$$$$$$$$$$$ X   X $$$$$$$$$$$$",
"$$$$$$$$$$$$$$ $$$ $$$$$$$$$$$$$",
"$$$$$$$$$$$$$$$$$$$$$$$$$$$$$$$$",
"$$$$$$$$$$$$$$$$$$$$$$$$$$$$$$$$",
"$$$$$$$$$$$$$$$$$$$$$$$$$$$$$$$$",
"$$$$$$$$$$$$$$$$$$$$$$$$$$$$$$$$",
"$$$$$$$$$$$$$$$$$$$$$$$$$$$$$$$$",
"$$$$$$$$$$$$$$$$$$$$$$$$$$$$$$$$",
"$$$$$$$$$$$$$$$$$$$$$$$$$$$$$$$$",
"$$$$$$$$$$$$$$$$$$$$$$$$$$$$$$$$",
"$$$$$$$$$$$$$$$$$$$$$$$$$$$$$$$$",
"$$$$$$$$$$$$$$$$$$$$$$$$$$$$$$$$"
};
